<svg width="512" height="512" viewBox="0 0 512 512" xmlns="http://www.w3.org/2000/svg" data-fg-d3bl1="0.8:1.6112:/src/app/App.tsx:7:7:165:5070:e:svg:etxtetxtxtetxtetxtetxtetetxtetxtetxtetxtetxtetxtetetxtetxtetxtetxtetetxtetxtetxtetxtetxtetetetxte" data-fgid-d3bl1=":r1:"><defs data-fg-d3bl2="0.8:1.6112:/src/app/App.tsx:13:9:300:901:e:defs:etetete"><radialGradient id="bg" cx="50%" cy="45%" r="70%" data-fg-d3bl3="0.8:1.6112:/src/app/App.tsx:14:11:317:186:e:radialGradient:ete"><stop offset="0%" stop-color="#1A2B48" data-fg-d3bl4="0.8:1.6112:/src/app/App.tsx:15:13:380:40:e:stop"></stop><stop offset="100%" stop-color="#080E1C" data-fg-d3bl5="0.8:1.6112:/src/app/App.tsx:16:13:433:42:e:stop"></stop></radialGradient><linearGradient id="tailGrad" x1="80%" y1="90%" x2="10%" y2="10%" data-fg-d3bl6="0.8:1.6112:/src/app/App.tsx:18:11:514:256:e:linearGradient:etete"><stop offset="0%" stop-color="#9C420C" data-fg-d3bl7="0.8:1.6112:/src/app/App.tsx:19:13:593:40:e:stop"></stop><stop offset="45%" stop-color="#D4661E" data-fg-d3bl8="0.8:1.6112:/src/app/App.tsx:20:13:646:41:e:stop"></stop><stop offset="100%" stop-color="#F08C42" data-fg-d3bl9="0.8:1.6112:/src/app/App.tsx:21:13:700:42:e:stop"></stop></linearGradient><linearGradient id="bodyGrad" x1="0%" y1="0%" x2="100%" y2="100%" data-fg-d3bl10="0.8:1.6112:/src/app/App.tsx:23:11:781:202:e:linearGradient:ete"><stop offset="0%" stop-color="#E07830" data-fg-d3bl11="0.8:1.6112:/src/app/App.tsx:24:13:860:40:e:stop"></stop><stop offset="100%" stop-color="#A84E10" data-fg-d3bl12="0.8:1.6112:/src/app/App.tsx:25:13:913:42:e:stop"></stop></linearGradient><radialGradient id="eyeGlow" cx="40%" cy="35%" r="60%" data-fg-d3bl13="0.8:1.6112:/src/app/App.tsx:27:11:994:191:e:radialGradient:ete"><stop offset="0%" stop-color="#4A3000" data-fg-d3bl14="0.8:1.6112:/src/app/App.tsx:28:13:1062:40:e:stop"></stop><stop offset="100%" stop-color="#0A0600" data-fg-d3bl15="0.8:1.6112:/src/app/App.tsx:29:13:1115:42:e:stop"></stop></radialGradient></defs><rect width="512" height="512" rx="98" fill="url(#bg)" data-fg-d3bl17="0.8:1.6112:/src/app/App.tsx:34:9:1243:57:e:rect"></rect><path d="
            M 302,398
            C 240,432 138,420 80,334
            C 32,260 48,152 122,98
            C 160,73 208,68 240,96
            C 264,118 264,155 248,185
            C 234,212 226,246 244,292
            C 258,328 280,366 300,398
            Z
          " fill="url(#tailGrad)" data-fg-d3bl20="0.8:1.6112:/src/app/App.tsx:38:9:1442:331:e:path"></path><path d="
            M 295,386
            C 270,360 256,318 254,286
            C 250,248 260,214 272,188
            C 286,160 288,128 268,106
            C 250,86 218,82 190,96
            C 152,116 130,180 138,252
            C 146,314 184,368 238,404
            C 266,420 294,412 295,386
            Z
          " fill="#E07C38" opacity="0.52" data-fg-d3bl22="0.8:1.6112:/src/app/App.tsx:52:9:1839:391:e:path"></path><ellipse cx="186" cy="86" rx="52" ry="30" transform="rotate(-18 186 86)" fill="#F4A050" opacity="0.42" data-fg-d3bl24="0.8:1.6112:/src/app/App.tsx:68:9:2290:183:e:ellipse"></ellipse><ellipse cx="72" cy="256" rx="22" ry="14" transform="rotate(-30 72 256)" fill="#E07C38" opacity="0.28" data-fg-d3bl26="0.8:1.6112:/src/app/App.tsx:78:9:2537:105:e:ellipse"></ellipse><ellipse cx="88" cy="168" rx="20" ry="13" transform="rotate(-45 88 168)" fill="#F09040" opacity="0.22" data-fg-d3bl27="0.8:1.6112:/src/app/App.tsx:79:9:2651:105:e:ellipse"></ellipse><ellipse cx="374" cy="354" rx="72" ry="88" fill="url(#bodyGrad)" data-fg-d3bl29="0.8:1.6112:/src/app/App.tsx:82:9:2793:67:e:ellipse"></ellipse><ellipse cx="362" cy="378" rx="38" ry="55" fill="#F6CC98" data-fg-d3bl31="0.8:1.6112:/src/app/App.tsx:84:9:2891:60:e:ellipse"></ellipse><ellipse cx="372" cy="288" rx="46" ry="34" fill="#C85E1C" data-fg-d3bl33="0.8:1.6112:/src/app/App.tsx:87:9:2989:60:e:ellipse"></ellipse><circle cx="368" cy="218" r="72" fill="#CC601E" data-fg-d3bl35="0.8:1.6112:/src/app/App.tsx:90:9:3086:50:e:circle"></circle><ellipse cx="350" cy="188" rx="46" ry="32" fill="#DC7028" opacity="0.42" data-fg-d3bl37="0.8:1.6112:/src/app/App.tsx:92:9:3177:75:e:ellipse"></ellipse><path d="M 322,158 C 306,122 318,88 346,84 C 364,80 382,100 378,160 Z" fill="#8E3A0A" data-fg-d3bl39="0.8:1.6112:/src/app/App.tsx:95:9:3288:116:e:path"></path><path d="M 326,157 C 314,130 324,104 344,102 C 356,100 368,116 365,158 Z" fill="#CC5C24" data-fg-d3bl40="0.8:1.6112:/src/app/App.tsx:99:9:3413:119:e:path"></path><ellipse cx="426" cy="250" rx="42" ry="29" fill="#F6CC98" data-fg-d3bl42="0.8:1.6112:/src/app/App.tsx:105:9:3579:60:e:ellipse"></ellipse><ellipse cx="454" cy="244" rx="13" ry="9" fill="#180A02" data-fg-d3bl44="0.8:1.6112:/src/app/App.tsx:108:9:3676:59:e:ellipse"></ellipse><ellipse cx="450" cy="241" rx="5" ry="3" fill="#3C1A06" opacity="0.45" data-fg-d3bl46="0.8:1.6112:/src/app/App.tsx:110:9:3775:73:e:ellipse"></ellipse><circle cx="350" cy="205" r="23" fill="white" data-fg-d3bl48="0.8:1.6112:/src/app/App.tsx:113:9:3884:48:e:circle"></circle><circle cx="354" cy="208" r="14" fill="url(#eyeGlow)" data-fg-d3bl49="0.8:1.6112:/src/app/App.tsx:114:9:3941:56:e:circle"></circle><circle cx="360" cy="203" r="5" fill="white" data-fg-d3bl51="0.8:1.6112:/src/app/App.tsx:116:9:4034:47:e:circle"></circle><path d="M 328,198 Q 350,188 373,200" stroke="#8E3A0A" stroke-width="3.5" fill="none" stroke-linecap="round" opacity="0.7" data-fg-d3bl53="0.8:1.6112:/src/app/App.tsx:118:9:4117:191:e:path"></path><ellipse cx="400" cy="250" rx="18" ry="11" fill="#E06838" opacity="0.32" data-fg-d3bl55="0.8:1.6112:/src/app/App.tsx:128:9:4352:75:e:ellipse"></ellipse><path d="M 426,268 Q 438,279 450,268" stroke="#180A02" stroke-width="3" fill="none" stroke-linecap="round" data-fg-d3bl57="0.8:1.6112:/src/app/App.tsx:131:9:4465:165:e:path"></path><line x1="420" y1="250" x2="484" y2="238" stroke="#F2E0C4" stroke-width="1.8" opacity="0.6" data-fg-d3bl59="0.8:1.6112:/src/app/App.tsx:140:9:4671:93:e:line"></line><line x1="420" y1="257" x2="488" y2="257" stroke="#F2E0C4" stroke-width="1.8" opacity="0.6" data-fg-d3bl60="0.8:1.6112:/src/app/App.tsx:141:9:4773:93:e:line"></line><line x1="420" y1="264" x2="482" y2="276" stroke="#F2E0C4" stroke-width="1.8" opacity="0.6" data-fg-d3bl61="0.8:1.6112:/src/app/App.tsx:142:9:4875:93:e:line"></line><path d="M 302,392 C 318,420 348,422 360,406 C 368,394 370,378 374,360" stroke="#8E3A0A" stroke-width="5" fill="none" opacity="0.25" data-fg-d3bl63="0.8:1.6112:/src/app/App.tsx:145:9:5030:192:e:path"></path></svg>